<svg width="240" height="172" viewBox="0 0 240 172" fill="none" xmlns="http://www.w3.org/2000/svg">
<path d="M218.44 158.43C218.715 157.495 218.856 156.525 218.86 155.55C218.86 147.33 208.86 140.67 196.48 140.67C184.1 140.67 174.1 147.33 174.1 155.55C174.102 156.526 174.247 157.496 174.53 158.43H218.44Z" fill="#191919"/>
<path d="M218.44 159.43H174.53C174.307 159.439 174.087 159.373 173.906 159.242C173.725 159.112 173.592 158.924 173.53 158.71C173.223 157.685 173.065 156.62 173.06 155.55C173.06 146.79 183.55 139.67 196.44 139.67C209.33 139.67 219.82 146.79 219.82 155.55C219.82 156.621 219.661 157.686 219.35 158.71C219.292 158.91 219.173 159.086 219.01 159.215C218.847 159.345 218.648 159.42 218.44 159.43ZM175.3 157.43H217.66C217.79 156.812 217.857 156.182 217.86 155.55C217.86 147.89 208.27 141.67 196.48 141.67C184.69 141.67 175.1 147.89 175.1 155.55C175.103 156.182 175.17 156.812 175.3 157.43Z" fill="#ECDBBA"/>
<path d="M196.48 150.55C196.215 150.55 195.96 150.445 195.773 150.257C195.585 150.07 195.48 149.815 195.48 149.55V140.67C195.48 140.405 195.585 140.15 195.773 139.963C195.96 139.775 196.215 139.67 196.48 139.67C196.745 139.67 197 139.775 197.187 139.963C197.375 140.15 197.48 140.405 197.48 140.67V149.55C197.48 149.815 197.375 150.07 197.187 150.257C197 150.445 196.745 150.55 196.48 150.55Z" fill="#ECDBBA"/>
<path d="M232.33 158.43H7.6699C4.48322 158.43 1.8999 161.013 1.8999 164.2V165.14C1.8999 168.327 4.48322 170.91 7.6699 170.91H232.33C235.517 170.91 238.1 168.327 238.1 165.14V164.2C238.1 161.013 235.517 158.43 232.33 158.43Z" fill="#191919"/>
<path d="M232.33 171.91H7.6699C5.8752 171.907 4.15476 171.193 2.88571 169.924C1.61666 168.655 0.902547 166.935 0.899902 165.14V164.2C0.902547 162.405 1.61666 160.685 2.88571 159.416C4.15476 158.147 5.8752 157.433 7.6699 157.43H232.33C234.125 157.433 235.845 158.147 237.114 159.416C238.383 160.685 239.097 162.405 239.1 164.2V165.14C239.097 166.935 238.383 168.655 237.114 169.924C235.845 171.193 234.125 171.907 232.33 171.91ZM7.6699 159.43C6.40563 159.433 5.1939 159.936 4.29992 160.83C3.40594 161.724 2.90254 162.936 2.8999 164.2V165.14C2.90254 166.404 3.40594 167.616 4.29992 168.51C5.1939 169.404 6.40563 169.907 7.6699 169.91H232.33C233.594 169.907 234.806 169.404 235.7 168.51C236.594 167.616 237.097 166.404 237.1 165.14V164.2C237.097 162.936 236.594 161.724 235.7 160.83C234.806 159.936 233.594 159.433 232.33 159.43H7.6699Z" fill="#ECDBBA"/>
<path d="M191.3 9.11H48.7C43.1826 9.11 38.71 13.5827 38.71 19.1V122.01C38.71 127.527 43.1826 132 48.7 132H191.3C196.817 132 201.29 127.527 201.29 122.01V19.1C201.29 13.5827 196.817 9.11 191.3 9.11Z" fill="#191919"/>
<path d="M191.3 133H48.7C45.7826 133 42.9847 131.841 40.9218 129.778C38.8589 127.715 37.7 124.917 37.7 122V19.1C37.7 16.1826 38.8589 13.3847 40.9218 11.3218C42.9847 9.25893 45.7826 8.10001 48.7 8.10001H191.3C194.217 8.10001 197.015 9.25893 199.078 11.3218C201.141 13.3847 202.3 16.1826 202.3 19.1V122C202.3 124.917 201.141 127.715 199.078 129.778C197.015 131.841 194.217 133 191.3 133ZM48.7 10.11C46.313 10.11 44.0238 11.0582 42.336 12.746C40.6482 14.4339 39.7 16.7231 39.7 19.11V122C39.7 124.387 40.6482 126.676 42.336 128.364C44.0238 130.052 46.313 131 48.7 131H191.3C193.687 131 195.976 130.052 197.664 128.364C199.352 126.676 200.3 124.387 200.3 122V19.1C200.3 16.7131 199.352 14.4239 197.664 12.736C195.976 11.0482 193.687 10.1 191.3 10.1L48.7 10.11Z" fill="#ECDBBA"/>
<path d="M148.82 158.43H91.1799L97.1999 132H142.8L148.82 158.43Z" fill="#191919"/>
<path d="M148.82 159.43H91.18C91.0298 159.429 90.8817 159.395 90.7466 159.329C90.6116 159.263 90.4931 159.168 90.4 159.05C90.3077 158.933 90.2428 158.797 90.2099 158.651C90.1771 158.506 90.1771 158.355 90.21 158.21L96.21 131.78C96.2608 131.554 96.3882 131.353 96.5705 131.211C96.7529 131.069 96.9788 130.994 97.21 131H142.81C143.041 130.994 143.267 131.069 143.449 131.211C143.632 131.353 143.759 131.554 143.81 131.78L149.81 158.21C149.843 158.355 149.843 158.506 149.81 158.651C149.777 158.797 149.712 158.933 149.62 159.05C149.525 159.171 149.403 159.267 149.264 159.333C149.126 159.399 148.974 159.432 148.82 159.43ZM92.44 157.43H147.56L142 133H98L92.44 157.43Z" fill="#ECDBBA"/>
<path d="M190.2 19.35H49.7898V110.56H190.2V19.35Z" fill="#191919"/>
<path d="M190.21 111.56H49.7898C49.5246 111.56 49.2702 111.455 49.0827 111.267C48.8952 111.08 48.7898 110.825 48.7898 110.56V19.35C48.7898 19.0848 48.8952 18.8304 49.0827 18.6429C49.2702 18.4554 49.5246 18.35 49.7898 18.35H190.21C190.475 18.35 190.729 18.4554 190.917 18.6429C191.104 18.8304 191.21 19.0848 191.21 19.35V110.56C191.21 110.825 191.104 111.08 190.917 111.267C190.729 111.455 190.475 111.56 190.21 111.56ZM50.7898 109.56H189.21V20.35H50.7898V109.56Z" fill="#ECDBBA"/>
<path d="M91.1798 19.35H49.7898V110.56H91.1798V19.35Z" fill="#191919"/>
<path d="M91.1798 111.56H49.7898C49.5246 111.56 49.2702 111.455 49.0827 111.267C48.8952 111.08 48.7898 110.825 48.7898 110.56V19.35C48.7898 19.0848 48.8952 18.8304 49.0827 18.6429C49.2702 18.4554 49.5246 18.35 49.7898 18.35H91.1798C91.445 18.35 91.6994 18.4554 91.8869 18.6429C92.0744 18.8304 92.1798 19.0848 92.1798 19.35V110.56C92.1798 110.825 92.0744 111.08 91.8869 111.267C91.6994 111.455 91.445 111.56 91.1798 111.56ZM50.7898 109.56H90.1798V20.35H50.7898V109.56Z" fill="#ECDBBA"/>
<path d="M190.2 19.35H91.1799V110.56H190.2V19.35Z" fill="#ECDBBA"/>
<path d="M190.21 111.56H91.21C90.9447 111.56 90.6904 111.455 90.5029 111.267C90.3153 111.08 90.21 110.825 90.21 110.56V19.35C90.21 19.0848 90.3153 18.8304 90.5029 18.6429C90.6904 18.4554 90.9447 18.35 91.21 18.35H190.21C190.475 18.35 190.73 18.4554 190.917 18.6429C191.105 18.8304 191.21 19.0848 191.21 19.35V110.56C191.21 110.825 191.105 111.08 190.917 111.267C190.73 111.455 190.475 111.56 190.21 111.56ZM92.21 109.56H189.21V20.35H92.21V109.56Z" fill="#ECDBBA"/>
<path d="M78.7199 31.89H61.9199C61.6547 31.89 61.4004 31.7846 61.2128 31.5971C61.0253 31.4096 60.9199 31.1552 60.9199 30.89C60.9199 30.6248 61.0253 30.3704 61.2128 30.1829C61.4004 29.9954 61.6547 29.89 61.9199 29.89H78.7199C78.9851 29.89 79.2395 29.9954 79.427 30.1829C79.6146 30.3704 79.7199 30.6248 79.7199 30.89C79.7199 31.1552 79.6146 31.4096 79.427 31.5971C79.2395 31.7846 78.9851 31.89 78.7199 31.89Z" fill="#ECDBBA"/>
<path d="M81.5999 41.73H67.4399C67.1747 41.73 66.9204 41.6246 66.7328 41.4371C66.5453 41.2496 66.4399 40.9952 66.4399 40.73C66.4399 40.4648 66.5453 40.2104 66.7328 40.0229C66.9204 39.8354 67.1747 39.73 67.4399 39.73H81.5999C81.8652 39.73 82.1195 39.8354 82.3071 40.0229C82.4946 40.2104 82.5999 40.4648 82.5999 40.73C82.5999 40.9952 82.4946 41.2496 82.3071 41.4371C82.1195 41.6246 81.8652 41.73 81.5999 41.73Z" fill="#ECDBBA"/>
<path d="M83.52 51.57H71.76C71.4948 51.57 71.2404 51.4647 71.0529 51.2771C70.8654 51.0896 70.76 50.8352 70.76 50.57C70.76 50.3048 70.8654 50.0504 71.0529 49.8629C71.2404 49.6754 71.4948 49.57 71.76 49.57H83.52C83.7852 49.57 84.0396 49.6754 84.2271 49.8629C84.4147 50.0504 84.52 50.3048 84.52 50.57C84.52 50.8352 84.4147 51.0896 84.2271 51.2771C84.0396 51.4647 83.7852 51.57 83.52 51.57Z" fill="white"/>
<path d="M79.6798 61.41H64.7998C64.5346 61.41 64.2802 61.3046 64.0927 61.1171C63.9052 60.9296 63.7998 60.6752 63.7998 60.41C63.7998 60.1448 63.9052 59.8904 64.0927 59.7029C64.2802 59.5154 64.5346 59.41 64.7998 59.41H79.6798C79.945 59.41 80.1994 59.5154 80.3869 59.7029C80.5744 59.8904 80.6798 60.1448 80.6798 60.41C80.6798 60.6752 80.5744 60.9296 80.3869 61.1171C80.1994 61.3046 79.945 61.41 79.6798 61.41Z" fill="white"/>
<path d="M75.6799 71.25H61.9199C61.6547 71.25 61.4004 71.1446 61.2128 70.9571C61.0253 70.7696 60.9199 70.5152 60.9199 70.25C60.9199 69.9848 61.0253 69.7304 61.2128 69.5429C61.4004 69.3554 61.6547 69.25 61.9199 69.25H75.6799C75.9451 69.25 76.1995 69.3554 76.387 69.5429C76.5746 69.7304 76.6799 69.9848 76.6799 70.25C76.6799 70.5152 76.5746 70.7696 76.387 70.9571C76.1995 71.1446 75.9451 71.25 75.6799 71.25Z" fill="#ECDBBA"/>
<path d="M78.7198 81.09H66.5598C66.2946 81.09 66.0402 80.9846 65.8527 80.7971C65.6652 80.6096 65.5598 80.3552 65.5598 80.09C65.5598 79.8248 65.6652 79.5704 65.8527 79.3829C66.0402 79.1954 66.2946 79.09 66.5598 79.09H78.7198C78.985 79.09 79.2394 79.1954 79.4269 79.3829C79.6145 79.5704 79.7198 79.8248 79.7198 80.09C79.7198 80.3552 79.6145 80.6096 79.4269 80.7971C79.2394 80.9846 78.985 81.09 78.7198 81.09Z" fill="#ECDBBA"/>
<path d="M74.5199 90.93H61.9199C61.6547 90.93 61.4004 90.8246 61.2128 90.6371C61.0253 90.4496 60.9199 90.1952 60.9199 89.93C60.9199 89.6648 61.0253 89.4104 61.2128 89.2229C61.4004 89.0354 61.6547 88.93 61.9199 88.93H74.5199C74.7851 88.93 75.0395 89.0354 75.227 89.2229C75.4146 89.4104 75.5199 89.6648 75.5199 89.93C75.5199 90.1952 75.4146 90.4496 75.227 90.6371C75.0395 90.8246 74.7851 90.93 74.5199 90.93Z" fill="white"/>
<path d="M78.7198 100.77H66.5598C66.2946 100.77 66.0402 100.665 65.8527 100.477C65.6652 100.29 65.5598 100.035 65.5598 99.77C65.5598 99.5048 65.6652 99.2504 65.8527 99.0629C66.0402 98.8754 66.2946 98.77 66.5598 98.77H78.7198C78.985 98.77 79.2394 98.8754 79.4269 99.0629C79.6145 99.2504 79.7198 99.5048 79.7198 99.77C79.7198 100.035 79.6145 100.29 79.4269 100.477C79.2394 100.665 78.985 100.77 78.7198 100.77Z" fill="#ECDBBA"/>
<path d="M121 31.89H104.2C103.935 31.89 103.68 31.7846 103.493 31.5971C103.305 31.4096 103.2 31.1552 103.2 30.89C103.2 30.6248 103.305 30.3704 103.493 30.1829C103.68 29.9954 103.935 29.89 104.2 29.89H121C121.265 29.89 121.52 29.9954 121.707 30.1829C121.895 30.3704 122 30.6248 122 30.89C122 31.1552 121.895 31.4096 121.707 31.5971C121.52 31.7846 121.265 31.89 121 31.89Z" fill="#191919"/>
<path d="M144.16 41.73H109.68C109.415 41.73 109.16 41.6246 108.973 41.4371C108.785 41.2496 108.68 40.9952 108.68 40.73C108.68 40.4648 108.785 40.2104 108.973 40.0229C109.16 39.8354 109.415 39.73 109.68 39.73H144.16C144.425 39.73 144.68 39.8354 144.867 40.0229C145.055 40.2104 145.16 40.4648 145.16 40.73C145.16 40.9952 145.055 41.2496 144.867 41.4371C144.68 41.6246 144.425 41.73 144.16 41.73Z" fill="white"/>
<path d="M135.6 51.57H109.68C109.415 51.57 109.16 51.4647 108.973 51.2771C108.785 51.0896 108.68 50.8352 108.68 50.57C108.68 50.3048 108.785 50.0504 108.973 49.8629C109.16 49.6754 109.415 49.57 109.68 49.57H135.6C135.865 49.57 136.12 49.6754 136.307 49.8629C136.495 50.0504 136.6 50.3048 136.6 50.57C136.6 50.8352 136.495 51.0896 136.307 51.2771C136.12 51.4647 135.865 51.57 135.6 51.57Z" fill="white"/>
<path d="M121.92 61.41H107C106.735 61.41 106.48 61.3046 106.293 61.1171C106.105 60.9296 106 60.6752 106 60.41C106 60.1448 106.105 59.8904 106.293 59.7029C106.48 59.5154 106.735 59.41 107 59.41H121.88C122.145 59.41 122.4 59.5154 122.587 59.7029C122.775 59.8904 122.88 60.1448 122.88 60.41C122.88 60.6752 122.775 60.9296 122.587 61.1171C122.4 61.3046 122.145 61.41 121.88 61.41H121.92Z" fill="#191919"/>
<path d="M127.84 71.25H111C110.735 71.25 110.48 71.1446 110.293 70.9571C110.105 70.7696 110 70.5152 110 70.25C110 69.9848 110.105 69.7304 110.293 69.5429C110.48 69.3554 110.735 69.25 111 69.25H127.8C128.065 69.25 128.32 69.3554 128.507 69.5429C128.695 69.7304 128.8 69.9848 128.8 70.25C128.8 70.5152 128.695 70.7696 128.507 70.9571C128.32 71.1446 128.065 71.25 127.8 71.25H127.84Z" fill="#F56132"/>
<path d="M136.4 81.09H110.46C110.195 81.09 109.94 80.9846 109.753 80.7971C109.565 80.6096 109.46 80.3552 109.46 80.09C109.46 79.8248 109.565 79.5704 109.753 79.3829C109.94 79.1954 110.195 79.09 110.46 79.09H136.4C136.665 79.09 136.92 79.1954 137.107 79.3829C137.295 79.5704 137.4 79.8248 137.4 80.09C137.4 80.3552 137.295 80.6096 137.107 80.7971C136.92 80.9846 136.665 81.09 136.4 81.09Z" fill="white"/>
<path d="M116.76 90.93H104.16C103.895 90.93 103.64 90.8246 103.453 90.6371C103.265 90.4496 103.16 90.1952 103.16 89.93C103.16 89.6648 103.265 89.4104 103.453 89.2229C103.64 89.0354 103.895 88.93 104.16 88.93H116.76C117.025 88.93 117.279 89.0354 117.467 89.2229C117.655 89.4104 117.76 89.6648 117.76 89.93C117.76 90.1952 117.655 90.4496 117.467 90.6371C117.279 90.8246 117.025 90.93 116.76 90.93Z" fill="#191919"/>
<path d="M136.4 100.77H108.8C108.535 100.77 108.28 100.665 108.093 100.477C107.905 100.29 107.8 100.035 107.8 99.77C107.8 99.5048 107.905 99.2504 108.093 99.0629C108.28 98.8754 108.535 98.77 108.8 98.77H136.4C136.665 98.77 136.919 98.8754 137.107 99.0629C137.294 99.2504 137.4 99.5048 137.4 99.77C137.4 100.035 137.294 100.29 137.107 100.477C136.919 100.665 136.665 100.77 136.4 100.77Z" fill="#70CC40"/>
<path d="M162.84 100.77H144.72C144.455 100.77 144.2 100.665 144.013 100.477C143.825 100.29 143.72 100.035 143.72 99.77C143.72 99.5048 143.825 99.2504 144.013 99.0629C144.2 98.8754 144.455 98.77 144.72 98.77H162.84C163.105 98.77 163.36 98.8754 163.547 99.0629C163.735 99.2504 163.84 99.5048 163.84 99.77C163.84 100.035 163.735 100.29 163.547 100.477C163.36 100.665 163.105 100.77 162.84 100.77Z" fill="#FFBC0E"/>
<path d="M157 51.57H144.2C143.935 51.57 143.68 51.4647 143.493 51.2771C143.305 51.0896 143.2 50.8352 143.2 50.57C143.2 50.3048 143.305 50.0504 143.493 49.8629C143.68 49.6754 143.935 49.57 144.2 49.57H157C157.265 49.57 157.52 49.6754 157.707 49.8629C157.895 50.0504 158 50.3048 158 50.57C158 50.8352 157.895 51.0896 157.707 51.2771C157.52 51.4647 157.265 51.57 157 51.57Z" fill="#191919"/>
<path d="M175.21 41.73H150.56C150.295 41.73 150.04 41.6246 149.853 41.4371C149.665 41.2496 149.56 40.9952 149.56 40.73C149.56 40.4648 149.665 40.2104 149.853 40.0229C150.04 39.8354 150.295 39.73 150.56 39.73H175.21C175.475 39.73 175.729 39.8354 175.917 40.0229C176.104 40.2104 176.21 40.4648 176.21 40.73C176.21 40.9952 176.104 41.2496 175.917 41.4371C175.729 41.6246 175.475 41.73 175.21 41.73Z" fill="#04293A"/>
<path d="M171.12 51.57H163.92C163.655 51.57 163.4 51.4647 163.213 51.2771C163.025 51.0896 162.92 50.8352 162.92 50.57C162.92 50.3048 163.025 50.0504 163.213 49.8629C163.4 49.6754 163.655 49.57 163.92 49.57H171.12C171.385 49.57 171.639 49.6754 171.827 49.8629C172.015 50.0504 172.12 50.3048 172.12 50.57C172.12 50.8352 172.015 51.0896 171.827 51.2771C171.639 51.4647 171.385 51.57 171.12 51.57Z" fill="#F56132"/>
<path d="M140 71.25H132.8C132.535 71.25 132.28 71.1446 132.093 70.9571C131.905 70.7696 131.8 70.5152 131.8 70.25C131.8 69.9848 131.905 69.7304 132.093 69.5429C132.28 69.3554 132.535 69.25 132.8 69.25H140C140.265 69.25 140.519 69.3554 140.707 69.5429C140.894 69.7304 141 69.9848 141 70.25C141 70.5152 140.894 70.7696 140.707 70.9571C140.519 71.1446 140.265 71.25 140 71.25Z" fill="#F56132"/>
<path d="M175.21 71.25H145.92C145.655 71.25 145.4 71.1446 145.213 70.9571C145.025 70.7696 144.92 70.5152 144.92 70.25C144.92 69.9848 145.025 69.7304 145.213 69.5429C145.4 69.3554 145.655 69.25 145.92 69.25H175.21C175.475 69.25 175.73 69.3554 175.917 69.5429C176.105 69.7304 176.21 69.9848 176.21 70.25C176.21 70.5152 176.105 70.7696 175.917 70.9571C175.73 71.1446 175.475 71.25 175.21 71.25Z" fill="white"/>

</svg>
